<svg width="172" height="59" viewBox="0 0 172 59" fill="none" xmlns="http://www.w3.org/2000/svg">
<path d="M13.2923 58.0935H18.1824V58.4831H13.0236H12.9027V49.0791H13.2923H18.0615V49.4687H13.2923V53.5661H17.0942V53.9557H13.2923V58.0935V58.0935ZM31.1667 49.0791V58.4831H30.7771V49.9523L26.5184 58.4831H26.2632L22.0045 49.9389V58.4831H21.6149V49.0791H22.0045L26.3975 57.8785L30.7771 49.0791H31.1667V49.0791ZM37.6622 49.0791C39.7714 49.0791 40.8864 50.3822 40.8864 51.9674C40.8864 53.593 39.7714 54.8827 37.6622 54.8827H35.1903V58.4831H34.8007V49.0791H37.6622ZM37.7159 54.4797C39.4086 54.4797 40.4968 53.499 40.4968 51.9674C40.4968 50.4091 39.4086 49.4687 37.7159 49.4687H35.1903V54.4797H37.7159ZM44.5741 58.0935H49.2359V58.4831H44.1845V49.0791H44.5741V58.0935V58.0935ZM56.309 48.9447C58.6197 48.9447 61.0648 50.9464 61.0648 53.7811C61.0648 56.6157 58.6197 58.6174 56.309 58.6174C53.9983 58.6174 51.5667 56.6157 51.5667 53.7811C51.5667 50.9464 53.9983 48.9447 56.309 48.9447V48.9447ZM56.309 58.2144C58.3914 58.2144 60.6752 56.4142 60.6752 53.7811C60.6752 51.1479 58.3914 49.3477 56.309 49.3477C54.2401 49.3477 51.9563 51.1479 51.9563 53.7811C51.9563 56.4142 54.2401 58.2144 56.309 58.2144ZM70.4755 49.0791L67.0229 53.8617V58.4831H66.6333V53.8617L63.1941 49.0791H63.6643L66.8348 53.4855L70.0053 49.0791H70.4755V49.0791ZM89.3105 49.0791V58.4831H88.9209V49.9523L84.6622 58.4831H84.4069L80.1483 49.9389V58.4831H79.7587V49.0791H80.1483L84.5413 57.8785L88.9209 49.0791H89.3105V49.0791ZM93.334 58.0935H98.2241V58.4831H93.0654H92.9445V49.0791H93.334H98.1032V49.4687H93.334V53.5661H97.136V53.9557H93.334V58.0935ZM112.25 48.9447C114.56 48.9447 117.005 50.9464 117.005 53.7811C117.005 56.6157 114.56 58.6174 112.25 58.6174C109.939 58.6174 107.507 56.6157 107.507 53.7811C107.507 50.9464 109.939 48.9447 112.25 48.9447V48.9447ZM112.25 58.2144C114.332 58.2144 116.616 56.4142 116.616 53.7811C116.616 51.1479 114.332 49.3477 112.25 49.3477C110.181 49.3477 107.897 51.1479 107.897 53.7811C107.897 56.4142 110.181 58.2144 112.25 58.2144ZM127.33 49.0791H127.719V58.4831H127.424L120.827 49.8179V58.4831H120.438V49.0791H120.733L127.33 57.7711V49.0791V49.0791ZM131.743 58.0935H136.405V58.4831H131.353V49.0791H131.743V58.0935ZM140.159 49.0791V58.4831H139.77V49.0791H140.159ZM150.685 49.0791H151.075V58.4831H150.779L144.183 49.8179V58.4831H143.793V49.0791H144.089L150.685 57.7711V49.0791V49.0791ZM155.098 58.0935H159.988V58.4831H154.83H154.709V49.0791H155.098H159.868V49.4687H155.098V53.5661H158.9V53.9557H155.098V58.0935Z" fill="#137DC5"/>
<path d="M1.7859 35.9303H20.9071V37.4536H0.735288H0.262512V0.682205H1.7859H20.4343V2.20559H1.7859V18.2274H16.6521V19.7508H1.7859V35.9303V35.9303ZM63.772 0.682205V37.4536H62.2487V4.0967L45.5964 37.4536H44.5984L27.9462 4.04417V37.4536H26.4228V0.682205H27.9462L45.1237 35.0898L62.2487 0.682205H63.772V0.682205Z" fill="#137DC5"/>
<path d="M78.9636 30.0994H94.0808V36.9429H77.9422H71.5072V1.19292H78.9636H93.6211V8.03649H78.9636V15.5951H90.0461V22.3365H78.9636V30.0994V30.0994ZM117.216 0.682205C127.175 0.682205 135.755 8.18971 135.755 19.0679C135.755 29.9461 127.175 37.4536 117.216 37.4536C107.257 37.4536 98.6772 29.9461 98.6772 19.0679C98.6772 8.18971 107.257 0.682205 117.216 0.682205V0.682205ZM117.216 30.4569C123.243 30.4569 127.992 25.7072 127.992 19.0679C127.992 12.4286 123.243 7.67899 117.216 7.67899C111.19 7.67899 106.44 12.4286 106.44 19.0679C106.44 25.7072 111.19 30.4569 117.216 30.4569ZM164.508 1.19292H171.965V36.9429H166.296L148.574 14.7779V36.9429H141.118V1.19292H146.889L164.508 23.409V1.19292Z" fill="#137DC5"/>
</svg>
