<svg width="268" height="272" viewBox="0 0 268 272" fill="none" xmlns="http://www.w3.org/2000/svg">
<g clip-path="url(#clip0_2_2)">
<path d="M32.5835 222.819C35.2496 225.947 38.0623 228.947 41.0121 231.808C50.9551 241.595 62.8122 249.821 75.5322 256.042C80.219 258.236 84.5419 260.51 89.6068 262.467C90.8724 262.953 92.1652 263.474 93.5242 263.943C94.8947 264.377 96.3156 264.811 97.8011 265.241C99.2781 265.703 100.853 266.031 102.499 266.372C104.147 266.702 105.859 267.081 107.697 267.269C98.5792 265.347 89.6925 262.459 81.1868 258.655C72.6281 254.794 64.4957 250.05 56.9218 244.501C41.7528 233.389 28.7783 219.122 19.3012 202.812C18.91 202.325 18.3161 201.396 17.6042 200.212L16.4595 198.273L15.3047 196.043C14.5368 194.496 13.6524 192.925 12.975 191.404C12.3676 190.073 11.7319 188.755 11.0681 187.452C14.0133 194.787 17.413 201.204 21.2196 207.306C22.973 210.104 24.8289 212.837 26.7836 215.499C26.5075 215.126 26.2199 214.764 25.9452 214.39C28.0398 217.275 30.2466 220.078 32.5604 222.79L32.5835 222.819V222.819ZM25.9423 214.389L25.7626 214.144L25.9423 214.389ZM1.92037 152.499L1.22577 146.926C1.59392 150.327 2.02104 154.128 2.80192 157.933L2.33167 155.231C2.15809 154.326 2.02088 153.415 1.92037 152.499V152.499ZM123.406 266.875C132.973 267.843 143.005 267.554 152.831 265.999C162.664 264.45 172.28 261.704 181.221 258.163C164.755 264.639 147.279 267.519 130.183 267.037C127.895 267.001 125.64 267.037 123.406 266.875V266.875Z" fill="#FB9C2A"/>
<path d="M66.7656 247.305L66.3931 247.068C66.5182 247.147 66.6405 247.228 66.7656 247.305ZM80.6447 254.952C88.5273 258.619 96.7834 261.424 105.269 263.316C91.3369 260.137 78.2258 254.53 66.7656 247.305C71.1662 250.105 75.7925 252.697 80.6447 254.952ZM254.546 154.012C254.687 151.74 254.972 149.355 255.044 148.221C255.898 140.928 256.151 134.701 256.115 128.454C255.957 127.328 255.504 125.218 255.324 122.819C255.104 120.415 254.781 118.061 254.508 115.738C254.092 113.436 253.734 111.156 253.28 108.922C256.551 125.628 256.497 142.399 253.487 158.222C253.818 156.813 254.171 155.41 254.546 154.012V154.012Z" fill="#FB9C2A"/>
<path d="M1.27576 120.055C2.49526 110.132 5.09103 100.46 7.56024 94.0156L6.56076 98.7326C7.1777 97.3506 8.17431 94.1393 9.53331 90.7411L10.5141 88.1496L11.597 85.6373C12.316 84.0108 12.92 82.4691 13.5571 81.287C13.1214 82.3958 12.7014 83.5908 12.1952 84.7902C11.6991 85.9939 11.1425 87.2163 10.6119 88.4459L12.7892 83.5434C10.5923 89.0467 8.7012 94.6672 7.12449 100.379C5.49513 106.638 4.2066 113.216 3.51343 119.12C3.3121 120.593 3.24163 122.031 3.11077 123.403C3.01442 124.775 2.8476 126.084 2.83465 127.32C2.77425 129.793 2.69084 131.957 2.73255 133.688C2.88355 137.153 3.09207 138.88 3.39263 137.915C3.98369 135.998 3.97219 126.14 6.03442 113.802C7.13744 107.653 8.72078 100.908 10.8693 94.3004C13.002 87.6865 15.7977 81.2741 18.6925 75.6166L17.8412 77.4746L17.0574 79.3887L15.4525 83.2586L13.9799 87.2566L13.2307 89.2728C13.0106 89.9573 12.7877 90.6447 12.5677 91.335C10.6694 96.8098 9.25 102.575 8.01324 108.387L7.20934 112.776C6.91453 114.234 6.78942 115.718 6.57083 117.186C6.11351 120.121 5.94669 123.078 5.69215 126C5.40597 131.859 5.34845 137.646 5.8791 143.18C5.85753 141.865 5.83596 140.698 5.85466 139.567L6.02004 136.181C6.08907 135.017 6.07612 133.783 6.18542 132.37C6.28608 130.956 6.37812 129.363 6.45866 127.477C7.02095 117.974 8.71934 108.566 11.3597 99.4617C13.8764 90.3183 16.8446 82.2664 21.2667 74.9709L22.4186 72.7764C23.1981 71.3038 23.8467 69.8513 24.6707 68.37C25.6098 66.745 26.5086 65.5284 27.2363 64.4138C27.9855 63.3108 28.6212 62.3415 29.3488 61.401L34.6439 54.0926C34.7518 54.0797 34.6123 54.3587 34.3563 54.7728C35.2293 53.5287 36.1698 52.3333 37.1735 51.192C38.2593 49.9336 39.3134 48.5991 40.2065 47.4975C40.4164 47.4874 40.6206 47.4817 41.1024 47.1365C53.5419 33.9104 68.8505 23.1318 86.1019 16.3368L89.9373 14.8427L93.8201 13.5498L95.7515 12.9055L97.7073 12.3591L101.605 11.2762C103.834 10.7398 106.091 10.1962 108.394 9.70722L111.898 9.09459C113.076 8.89181 114.26 8.66316 115.471 8.55099C117.878 8.26193 119.978 7.65218 121.109 7.50261C127.392 7.14453 133.664 7.21643 141.026 7.81324C141.597 7.82331 142.485 7.87508 143.516 7.93117C144.548 7.99013 145.727 8.01889 146.87 8.12387C148.21 8.42587 149.641 8.725 151.143 9.01693C160.302 10.4378 169.158 12.9774 177.583 16.3555L177.573 16.3153L180.801 17.6009L184.094 19.1224C186.353 20.1061 188.566 21.3644 190.853 22.5494C192 23.1347 193.088 23.8495 194.215 24.4966C195.322 25.1783 196.482 25.7823 197.551 26.5272C199.72 27.9682 201.919 29.3473 203.945 30.8875C207.212 33.2451 210.379 35.739 213.437 38.3627C213.503 38.4231 213.572 38.4792 213.638 38.5382L213.698 38.5928L215.794 40.494L217.798 42.4944L219.805 44.4962C220.469 45.1678 221.084 45.8868 221.727 46.58C221.417 46.0767 221.428 45.8739 221.44 45.674C220.449 44.7249 219.277 43.6017 218.119 42.4958C220.05 44.2532 221.736 45.8423 223.119 47.1394C223.653 47.8211 224.235 48.4912 224.788 49.2232L226.493 51.4753L228.307 53.8179L230.111 56.3375C233.313 60.4188 236.138 64.7849 238.822 69.2372C240.064 71.5209 241.435 73.7399 242.541 76.1027L244.285 79.6059L245.856 83.1968C246.307 83.9633 246.132 83.2284 246.188 83.099C247.95 87.3587 249.366 91.788 250.649 96.2519C253.101 104.319 254.743 112.61 255.55 121.003C255.873 122.985 256.012 124.989 256.298 126.975L256.121 131.18C256.119 132.767 256.203 134.353 256.135 135.942L255.951 140.725C255.928 141.804 255.773 142.981 255.682 144.261C255.561 145.538 255.498 146.916 255.314 148.368L254.722 152.959C254.532 154.568 254.165 156.222 253.883 157.95C252.479 165.541 250.404 172.992 247.682 180.215C247.334 181.403 247.068 182.352 246.831 182.883C245.929 185.041 244.967 187.131 244.038 189.189C242.998 191.194 242.045 193.198 240.979 195.097C237.684 201.346 233.859 207.302 229.548 212.899C229.064 213.53 228.614 214.171 228.128 214.764L226.693 216.498C225.744 217.619 224.895 218.739 223.995 219.711C222.196 221.655 220.686 223.459 219.27 224.815C217.647 226.509 217.793 226.588 218.916 225.771C219.704 225.189 220.475 224.584 221.228 223.956L224.28 221.204C225.396 220.23 226.464 219.131 227.494 218.096C228.512 217.053 229.53 216.103 230.316 215.243C231.899 213.53 232.939 212.473 232.717 212.943C230.162 217.754 225.508 223.687 218.706 230.251C215.236 233.453 211.331 236.934 206.714 240.289C204.462 242.045 201.958 243.651 199.405 245.405C196.768 247.02 194.073 248.789 191.126 250.36C184.678 253.872 195.965 248.238 196.27 248.185C195.181 249.043 194.04 249.83 192.852 250.544C190.726 251.674 188.619 252.84 186.418 253.813C185.131 254.404 183.867 255.042 182.565 255.594L178.64 257.208L180.717 256.391C184.962 254.704 188.93 252.717 192.512 250.751C191.166 251.565 189.694 252.507 188.08 253.357C186.35 254.251 184.56 255.229 182.764 256.102L177.55 258.527C196.2 251.752 213.337 240.54 226.904 225.925C233.697 218.64 239.754 210.637 244.692 201.979C249.661 193.34 253.659 184.176 256.611 174.657C252.075 188.937 245.004 202.055 236.505 213.147C251.956 192.285 261.169 166.707 262.389 140.328C262.388 141.782 262.244 143.23 262.148 144.678C262.028 146.126 261.971 147.58 261.801 149.024C261.432 151.908 261.167 154.807 260.612 157.666C259.715 163.418 258.259 169.071 256.611 174.657C259.864 164.56 261.807 153.914 262.572 143.207C263.369 132.492 262.704 121.712 261.052 111.266C263.891 125.103 264.361 140.781 261.942 156.275C263.642 146.282 264.073 135.981 263.421 125.767C263.274 121.866 262.814 117.992 262.435 114.405C261.893 110.844 261.483 107.557 260.959 104.898C263.037 114.714 263.856 123.087 264.256 130.979C263.872 113.755 260.304 96.3036 253.298 79.9108C257.122 88.814 260.261 98.3917 262.178 108.238C264.105 118.075 264.906 128.139 264.45 137.82C264.429 136.687 264.476 135.555 264.41 134.417L264.256 130.979C264.669 146.582 262.266 162.048 257.503 176.591C255.113 183.862 252.16 190.927 248.587 197.651C245.02 204.363 240.903 210.769 236.277 216.8C241.559 210.631 247.136 201.91 251.586 192.331C256.017 182.732 259.306 172.35 261.568 163.283C258.241 179.565 251.635 195.631 242.052 209.979C232.494 224.339 219.976 236.964 205.491 246.654C191.024 256.374 174.61 263.101 157.765 266.425C149.401 268.086 140.9 268.957 132.373 269.026C124.001 269.071 115.643 268.341 107.406 266.847L111.727 267.669C113.168 267.942 114.629 268.093 116.079 268.309C118.978 268.775 121.91 268.95 124.833 269.219C130.69 269.548 136.579 269.659 142.449 269.212C148.33 268.9 154.173 268.022 159.988 266.951C162.873 266.295 165.793 265.759 168.641 264.918C170.071 264.518 171.518 264.168 172.937 263.724L177.187 262.346C175.041 263.011 172.783 263.891 170.371 264.536L167.35 265.425C173.691 263.735 179.897 261.573 185.916 258.959C188.669 257.758 191.38 256.461 194.042 255.069C189.054 257.716 183.908 260.056 178.635 262.076C168.579 265.829 158.129 268.425 147.486 269.816C145.889 270.069 144.434 270.148 143.13 270.285L139.638 270.63C137.583 270.792 136.066 270.865 135.004 270.982C132.88 271.193 132.578 271.39 133.424 271.553C134.268 271.715 136.258 271.845 138.706 271.914C141.146 271.899 144.041 271.769 146.674 271.528C173.131 268.815 197.422 258.432 216.888 242.887C236.367 227.34 251.286 206.688 259.601 183.254C260.123 181.893 260.524 180.49 260.959 179.098C261.38 177.701 261.846 176.319 262.227 174.91C262.933 172.077 263.769 169.277 264.309 166.401L265.2 162.108L265.9 157.776L266.246 155.609L266.494 153.428L266.986 149.065C267.989 137.396 267.592 125.602 265.818 114.028C264.869 107.479 263.201 99.7033 261.051 92.7774L259.397 87.7671C258.822 86.1751 258.21 84.6737 257.667 83.2615L256.866 81.2266L256.045 79.3988L254.634 76.3443C250.127 67.1994 244.464 58.4774 237.834 50.3651C231.212 42.2499 223.603 34.7358 215.024 28.1925L211.797 25.7434L208.451 23.431L206.774 22.2719L205.044 21.1847L201.568 19.016C196.83 16.2779 191.976 13.639 186.859 11.4502C181.796 9.15211 176.496 7.2869 171.102 5.61871C168.377 4.8709 165.665 4.0368 162.87 3.463C161.478 3.16244 160.098 2.79716 158.69 2.5455L154.456 1.79625C144.332 0.0144463 133.801 -0.409792 123.28 0.381161C112.764 1.19369 102.204 3.18976 92.0786 6.63544L88.2892 7.94842C87.0222 8.37554 85.8013 8.9292 84.5545 9.41384C83.3206 9.93012 82.0594 10.3817 80.8485 10.9512L77.2072 12.6381C75.982 13.1788 74.7984 13.8 73.6178 14.4285L70.0671 16.2937L66.6128 18.3243C65.4623 19.0031 64.3032 19.666 63.2016 20.421L59.8595 22.6184C58.7349 23.3332 57.6937 24.1687 56.6079 24.9367C55.5423 25.7334 54.4364 26.4754 53.4067 27.3153L50.3048 29.8132C49.2564 30.6258 48.267 31.5073 47.2805 32.3903L44.3137 35.022L41.4792 37.7817C40.5358 38.7007 39.5823 39.6096 38.7037 40.5875C31.4686 48.2065 25.1122 56.5187 19.9135 65.3141C14.8155 73.9423 10.6379 83.0822 7.4495 92.5833C1.15783 111.163 -0.646978 130.007 0.192871 147.027C0.0116704 140.02 -0.0185296 129.972 1.27576 120.055ZM204.237 250.125C208.607 247.301 212.815 244.233 216.842 240.937C212.758 244.301 208.562 247.407 204.237 250.125ZM262.073 172.063C261.643 173.358 261.279 174.638 260.805 175.861L259.428 179.489L258.758 181.284L258.021 183.054C257.528 184.247 257.05 185.446 256.587 186.651C253.924 193.283 250.757 199.701 247.114 205.849C243.489 211.997 239.286 217.758 234.797 223.164C232.579 225.895 230.163 228.427 227.787 230.96L224.076 234.588C222.858 235.808 221.525 236.895 220.262 238.045C219.203 238.966 218.136 239.866 217.062 240.752C221.052 237.474 224.844 233.963 228.417 230.236C223.247 235.596 217.623 240.498 211.607 244.888C210.118 245.926 208.678 247.039 207.131 248.017L202.461 250.992L197.528 253.795C195.85 254.727 194.078 255.556 192.302 256.463C193.574 255.713 194.862 254.99 196.164 254.294C197.632 253.479 199.172 252.515 200.676 251.634C202.192 250.77 203.57 249.82 204.715 249.027C205.859 248.233 206.757 247.574 207.224 247.148C206.557 247.601 205.878 248.036 205.202 248.477C205.929 247.998 206.652 247.511 207.369 247.018C207.339 247.051 207.276 247.102 207.224 247.148C222.945 236.412 236.338 222.302 246.373 206.217C256.453 190.147 263.012 172.018 265.73 153.582C265.141 160.976 263.786 166.881 262.073 172.063V172.063ZM240.355 59.8191C244.683 66.3556 248.423 73.2625 251.533 80.4587C251.893 81.2482 252.232 82.0492 252.567 82.8517C259.705 100.33 262.952 119.08 262.476 137.551C262.597 131.439 262.191 125.33 261.514 119.273C260.747 112.292 259.331 105.395 257.452 98.6492C253.768 85.121 247.784 72.2989 240.188 60.6101C240.886 61.5736 241.62 62.6177 242.381 63.725C243.196 64.871 243.959 66.0529 244.668 67.267L243.75 65.6722L242.759 64.1205L240.778 61.0199C239.429 58.9721 237.966 56.999 236.558 54.9914C235.031 53.073 233.583 51.0913 231.994 49.2232C230.792 47.8527 229.64 46.4362 228.42 45.0829C232.723 49.6201 236.763 54.4881 240.355 59.8191V59.8191ZM139.332 1.65675C141.441 1.76892 143.555 1.97457 145.669 2.13276C147.401 2.27801 149.124 2.53399 150.829 2.7267C151.341 2.74827 151.882 2.78278 152.561 2.859C153.238 2.95248 154.048 3.12649 155.105 3.36809C162.97 4.67963 170.146 6.65126 175.239 8.6876C185.016 12.3878 194.112 16.9912 202.362 22.3078C210.615 27.6144 218.021 33.6501 224.287 40.2423C227.175 43.3759 226.332 42.6928 224.74 41.1713L227.13 43.7081C226.072 42.6526 225.032 41.5826 223.958 40.5501L220.649 37.5444C221.454 38.2491 223.407 39.936 224.74 41.1713C214.114 30.3295 201.693 21.327 188.248 14.7046C174.794 8.08504 160.305 3.99653 145.822 2.3643C148.149 2.62315 149.29 2.68068 150.378 2.70944C148.817 2.5268 147.253 2.27657 145.669 2.13276C143.542 1.99327 141.42 1.80344 139.309 1.6999L133.038 1.55177C135.115 1.55033 137.219 1.60786 139.332 1.65675V1.65675Z" fill="#FB9C2A"/>
<path d="M166.736 265.602L167.349 265.422C166.708 265.595 166.076 265.785 165.43 265.949C165.868 265.84 166.306 265.733 166.736 265.602ZM230.706 210.179C236.796 202.145 242.177 192.544 245.613 184.274L245.571 184.282C236.855 204.879 222.717 222.622 205.074 235.686C208.207 233.508 211.284 231.253 214.304 228.922C218.184 224.867 224.677 218.272 230.706 210.179V210.179ZM50.8372 234.188C61.1512 243.41 73.5893 251.434 87.4339 256.84C92.8325 258.872 98.3419 260.652 103.976 261.906C106.772 262.628 109.627 263.074 112.46 263.605C113.879 263.856 115.317 263.996 116.744 264.197C118.173 264.383 119.6 264.593 121.039 264.676C114.541 263.956 108.089 262.877 101.809 261.167C95.5333 259.463 89.3811 257.356 83.4461 254.769C77.5418 252.141 71.8266 249.107 66.3413 245.689C60.8967 242.226 55.7339 238.359 50.8372 234.188ZM178.148 250.627L174.956 251.88L171.698 252.967C169.541 253.744 167.316 254.325 165.097 254.942C167.327 254.381 169.571 253.857 171.747 253.138L175.03 252.134L178.237 250.962C178.113 250.899 177.383 251.041 178.148 250.627ZM140.478 258.807C138.81 258.95 137.133 258.937 135.453 258.954C133.774 258.974 132.091 259.01 130.407 258.899L132.674 259.112C133.367 259.157 133.991 259.21 134.536 259.275C136.522 259.105 138.494 259.057 140.478 258.807ZM73.9776 243.339C75.9061 244.471 77.954 245.467 79.986 246.566C80.4951 246.845 81.4183 247.163 82.576 247.586C80.101 246.523 77.7296 245.206 75.3194 243.983C74.1258 243.349 72.9767 242.639 71.8061 241.977C70.6384 241.31 69.4749 240.644 68.3705 239.899L69.718 240.799L71.123 241.639L73.9776 243.339V243.339Z" fill="#FB9C2A"/>
<path d="M161.861 116.117C161.861 122.812 156.433 128.24 149.738 128.24H118.99C112.295 128.24 106.867 122.812 106.867 116.117V85.3697C106.867 78.6739 112.295 73.2462 118.99 73.2462H149.738C156.433 73.2462 161.861 78.6739 161.861 85.3697V116.117V116.117Z" stroke="url(#paint0_linear_2_2)" stroke-width="2.44491" stroke-miterlimit="10"/>
<path d="M151.965 112.809C153.653 117.026 151.603 121.813 147.386 123.502C143.17 125.19 138.381 123.141 136.694 118.923L132.557 108.591C130.869 104.373 132.919 99.5861 137.137 97.8983C141.354 96.2097 146.14 98.2601 147.829 102.478L151.965 112.809Z" stroke="url(#paint1_linear_2_2)" stroke-width="1.62994" stroke-miterlimit="10"/>
<path d="M137.137 97.8983C131.087 83.4986 120.285 85.7226 119.649 62.0518" stroke="url(#paint2_linear_2_2)" stroke-width="0.81497" stroke-miterlimit="10" stroke-linecap="round"/>
<path d="M140.449 106.614L139.175 103.265" stroke="url(#paint3_linear_2_2)" stroke-width="1.62994" stroke-miterlimit="10" stroke-linecap="round"/>
<path d="M143.705 97.8274C144.001 98.3147 144.264 98.8379 144.487 99.3945L148.623 109.726C150.311 113.943 149.044 118.416 145.793 119.719C142.543 121.021 138.538 118.657 136.851 114.439L132.714 104.107C132.538 103.666 132.394 103.222 132.281 102.78" stroke="url(#paint4_linear_2_2)" stroke-width="0.407485" stroke-miterlimit="10"/>
<path d="M61.2923 209.093H66.1824V209.483H61.0236H60.9027V200.079H61.2923H66.0615V200.469H61.2923V204.566H65.0942V204.956H61.2923V209.093V209.093ZM79.1667 200.079V209.483H78.7771V200.952L74.5184 209.483H74.2632L70.0045 200.939V209.483H69.6149V200.079H70.0045L74.3975 208.879L78.7771 200.079H79.1667V200.079ZM85.6622 200.079C87.7714 200.079 88.8864 201.382 88.8864 202.967C88.8864 204.593 87.7714 205.883 85.6622 205.883H83.1903V209.483H82.8007V200.079H85.6622ZM85.7159 205.48C87.4086 205.48 88.4968 204.499 88.4968 202.967C88.4968 201.409 87.4086 200.469 85.7159 200.469H83.1903V205.48H85.7159ZM92.5741 209.093H97.2359V209.483H92.1845V200.079H92.5741V209.093V209.093ZM104.309 199.945C106.62 199.945 109.065 201.946 109.065 204.781C109.065 207.616 106.62 209.617 104.309 209.617C101.998 209.617 99.5667 207.616 99.5667 204.781C99.5667 201.946 101.998 199.945 104.309 199.945V199.945ZM104.309 209.214C106.391 209.214 108.675 207.414 108.675 204.781C108.675 202.148 106.391 200.348 104.309 200.348C102.24 200.348 99.9563 202.148 99.9563 204.781C99.9563 207.414 102.24 209.214 104.309 209.214ZM118.476 200.079L115.023 204.862V209.483H114.633V204.862L111.194 200.079H111.664L114.835 204.486L118.005 200.079H118.476V200.079ZM137.31 200.079V209.483H136.921V200.952L132.662 209.483H132.407L128.148 200.939V209.483H127.759V200.079H128.148L132.541 208.879L136.921 200.079H137.31V200.079ZM141.334 209.093H146.224V209.483H141.065H140.944V200.079H141.334H146.103V200.469H141.334V204.566H145.136V204.956H141.334V209.093ZM160.25 199.945C162.56 199.945 165.005 201.946 165.005 204.781C165.005 207.616 162.56 209.617 160.25 209.617C157.939 209.617 155.507 207.616 155.507 204.781C155.507 201.946 157.939 199.945 160.25 199.945V199.945ZM160.25 209.214C162.332 209.214 164.616 207.414 164.616 204.781C164.616 202.148 162.332 200.348 160.25 200.348C158.181 200.348 155.897 202.148 155.897 204.781C155.897 207.414 158.181 209.214 160.25 209.214ZM175.33 200.079H175.719V209.483H175.424L168.827 200.818V209.483H168.438V200.079H168.733L175.33 208.771V200.079V200.079ZM179.743 209.093H184.405V209.483H179.353V200.079H179.743V209.093ZM188.159 200.079V209.483H187.77V200.079H188.159ZM198.685 200.079H199.075V209.483H198.779L192.183 200.818V209.483H191.793V200.079H192.089L198.685 208.771V200.079V200.079ZM203.098 209.093H207.988V209.483H202.83H202.709V200.079H203.098H207.868V200.469H203.098V204.566H206.9V204.956H203.098V209.093Z" fill="#137DC5"/>
<path d="M49.7859 186.93H68.9071V188.454H48.7353H48.2625V151.682H49.7859H68.4343V153.206H49.7859V169.227H64.6521V170.751H49.7859V186.93V186.93ZM111.772 151.682V188.454H110.249V155.097L93.5964 188.454H92.5984L75.9462 155.044V188.454H74.4228V151.682H75.9462L93.1237 186.09L110.249 151.682H111.772V151.682Z" fill="#137DC5"/>
<path d="M126.964 181.099H142.081V187.943H125.942H119.507V152.193H126.964H141.621V159.036H126.964V166.595H138.046V173.336H126.964V181.099V181.099ZM165.216 151.682C175.175 151.682 183.755 159.19 183.755 170.068C183.755 180.946 175.175 188.454 165.216 188.454C155.257 188.454 146.677 180.946 146.677 170.068C146.677 159.19 155.257 151.682 165.216 151.682V151.682ZM165.216 181.457C171.243 181.457 175.992 176.707 175.992 170.068C175.992 163.429 171.243 158.679 165.216 158.679C159.19 158.679 154.44 163.429 154.44 170.068C154.44 176.707 159.19 181.457 165.216 181.457ZM212.508 152.193H219.965V187.943H214.296L196.574 165.778V187.943H189.118V152.193H194.889L212.508 174.409V152.193Z" fill="#137DC5"/>
</g>
<defs>
<linearGradient id="paint0_linear_2_2" x1="106.867" y1="73.2462" x2="161.861" y2="73.2462" gradientUnits="userSpaceOnUse">
<stop stop-color="#2D388A"/>
<stop offset="1" stop-color="#00AEEF"/>
</linearGradient>
<linearGradient id="paint1_linear_2_2" x1="131.966" y1="97.3068" x2="152.556" y2="97.3068" gradientUnits="userSpaceOnUse">
<stop stop-color="#2D388A"/>
<stop offset="1" stop-color="#00AEEF"/>
</linearGradient>
<linearGradient id="paint2_linear_2_2" x1="119.649" y1="62.0518" x2="137.137" y2="62.0518" gradientUnits="userSpaceOnUse">
<stop stop-color="#2D388A"/>
<stop offset="1" stop-color="#00AEEF"/>
</linearGradient>
<linearGradient id="paint3_linear_2_2" x1="139.175" y1="103.265" x2="140.449" y2="103.265" gradientUnits="userSpaceOnUse">
<stop stop-color="#2D388A"/>
<stop offset="1" stop-color="#00AEEF"/>
</linearGradient>
<linearGradient id="paint4_linear_2_2" x1="132.281" y1="97.8274" x2="149.37" y2="97.8274" gradientUnits="userSpaceOnUse">
<stop stop-color="#2D388A"/>
<stop offset="1" stop-color="#00AEEF"/>
</linearGradient>
<clipPath id="clip0_2_2">
<rect width="267.527" height="271.914" fill="white"/>
</clipPath>
</defs>
</svg>
